# 3ds Max Wavefront OBJ Exporter v0.99 - (c)2007 guruware
# File Created: 26.03.2022 15:33:47

#
# object TombeV_1
#

v  0.2307 1.7509 -0.2780
v  -0.0198 1.7509 -0.2780
v  -0.0198 1.7509 -0.1904
v  0.2307 1.7509 -0.1904
v  0.2307 1.5519 0.4095
v  -0.0198 1.5519 0.4095
v  -0.0198 1.5519 0.4890
v  0.2307 1.5519 0.4890
v  0.2307 1.9566 0.0671
v  -0.0198 1.9566 0.0671
v  -0.0198 1.9278 0.1183
v  0.2307 1.9278 0.1183
v  -0.0198 1.5519 -0.4095
v  0.2307 1.5519 -0.4095
v  0.2307 1.5519 -0.4890
v  -0.0198 1.5519 -0.4890
v  -0.0041 1.6865 -0.1411
v  -0.0041 1.6865 -0.2267
v  -0.0042 1.6249 -0.2249
v  -0.0041 1.9097 -0.0003
v  -0.0041 1.6865 0.1361
v  -0.0198 1.7509 0.2780
v  -0.0199 1.6503 0.2750
v  0.2310 1.6503 0.2750
v  0.2307 1.7509 0.2780
v  0.2307 1.9756 -0.0001
v  0.2307 1.7509 0.1854
v  0.2310 1.6503 -0.2750
v  -0.0199 1.6503 -0.2750
v  0.2308 1.5880 0.3267
v  -0.0198 1.5846 0.3279
v  -0.0198 1.5753 -0.3267
v  0.2308 1.5846 -0.3279
v  -0.0041 1.5352 0.3164
v  -0.0042 1.6219 0.2248
v  -0.0041 1.5170 0.3168
v  -0.0198 1.4959 -0.3327
v  -0.0198 1.5359 -0.3308
v  -0.0198 0.0000 -0.4890
v  0.2307 0.0000 -0.4890
v  0.2307 0.0000 0.4890
v  -0.0198 0.0000 0.4890
v  0.2307 1.9270 -0.1231
v  -0.0198 1.9270 -0.1231
v  -0.0198 1.9574 -0.0673
v  0.2307 1.9574 -0.0673
v  -0.0198 0.1581 -0.4095
v  -0.0198 0.1581 0.4095
v  -0.0198 1.7509 0.1854
v  -0.0041 1.6865 0.2267
v  0.2307 1.7949 -0.1904
v  -0.0198 1.7949 -0.1904
v  -0.0041 1.7863 -0.1411
v  -0.0041 1.8720 0.0929
v  -0.0041 1.8949 0.0520
v  -0.0198 1.7949 0.1854
v  0.2307 1.7949 0.1854
v  -0.0198 1.8758 0.1686
v  0.2307 1.8758 0.1686
v  -0.0198 1.9756 -0.0001
v  0.2307 1.8756 -0.1736
v  -0.0198 1.8756 -0.1736
v  -0.0041 1.8709 -0.0980
v  -0.0041 1.8956 -0.0527
v  -0.0041 1.8379 -0.1303
v  -0.0041 1.7863 0.1361
v  -0.0041 1.8385 0.1253
v  -0.0198 1.4524 -0.4095
v  -0.0041 1.5256 -0.3152
v  -0.0041 1.5170 -0.3156
v  -0.0198 1.5461 0.3323
v  -0.0198 1.4959 0.3333
v  -0.0198 1.4524 0.4095
v  0.0053 0.2049 -0.3737
v  0.0053 0.2049 0.3737
v  0.0053 1.4057 0.3737
v  0.0053 1.4057 -0.3737
v  -0.0198 1.7075 -0.2435
v  -0.0198 1.7075 -0.1572
v  -0.0199 1.6343 -0.2413
v  -0.0199 1.6323 0.2412
v  -0.0198 1.7075 0.2435
v  -0.0198 1.7075 0.1522
v  -0.0198 1.7891 0.1522
v  -0.0198 1.8506 0.1394
v  -0.0198 1.8902 0.1012
v  -0.0198 1.9150 0.0569
v  -0.0198 1.9312 -0.0002
v  -0.0198 1.9157 -0.0575
v  -0.0198 1.8892 -0.1061
v  -0.0198 1.8502 -0.1444
v  -0.0198 1.7891 -0.1572
# 92 vertices

vn 0.0000 1.0000 -0.0000
vn 0.0000 0.9816 0.1908
vn -0.0046 0.9835 0.1807
vn 0.0000 0.9331 0.3595
vn 0.0000 0.8130 0.5823
vn 0.0000 0.9918 -0.1280
vn -0.0159 0.9862 -0.1646
vn -1.0000 0.0002 0.0003
vn -1.0000 0.0016 -0.0003
vn -1.0000 -0.0004 0.0010
vn -1.0000 0.0001 -0.0000
vn -1.0000 0.0002 -0.0003
vn 0.0000 -0.0324 0.9995
vn 1.0000 0.0002 -0.0000
vn 1.0000 -0.0001 -0.0000
vn 1.0000 0.0001 0.0009
vn 0.0000 -0.0324 -0.9995
vn -0.0046 0.8193 0.5733
vn -0.0071 0.8244 0.5660
vn -0.0108 0.9604 -0.2785
vn -0.0419 0.9365 -0.3482
vn -1.0000 -0.0004 0.0007
vn -1.0000 -0.0003 -0.0008
vn -1.0000 -0.0003 0.0002
vn -1.0000 -0.0005 -0.0002
vn -0.0044 0.6648 0.7470
vn 0.0000 0.6565 0.7544
vn -0.0077 0.6418 -0.7669
vn -0.0302 0.5971 -0.8016
vn -0.0229 0.6118 -0.7907
vn 0.0000 0.6565 -0.7544
vn 0.0000 -1.0000 -0.0000
vn 0.0000 0.8184 -0.5746
vn 0.0000 0.9371 -0.3491
vn -1.0000 -0.0001 0.0001
vn -1.0000 -0.0001 -0.0000
vn -1.0000 -0.0000 -0.0000
vn -1.0000 -0.0005 -0.0009
vn -1.0000 0.0014 0.0002
vn 1.0000 0.0001 -0.0009
vn 1.0000 0.0005 -0.0002
vn 1.0000 0.0005 0.0005
vn 1.0000 0.0000 -0.0000
vn 0.0000 0.1105 -0.9939
vn 0.0000 0.0000 -1.0000
vn -1.0000 0.0002 0.0001
vn -1.0000 0.0000 -0.0000
vn 0.0000 0.1098 0.9940
vn 0.0000 0.0000 1.0000
vn 1.0000 0.0009 -0.0003
vn 0.0000 0.7220 0.6919
vn 0.0000 1.0000 0.0056
vn 0.0000 0.7275 -0.6861
vn 0.0000 0.2196 -0.9756
vn 0.0000 0.2183 0.9759
vn -1.0000 0.0002 -0.0001
vn 1.0000 0.0010 0.0003
vn -1.0000 -0.0006 -0.0009
vn -1.0000 -0.0010 -0.0010
vn -1.0000 -0.0004 0.0003
vn -1.0000 -0.0001 0.0004
vn -1.0000 -0.0006 0.0010
vn -1.0000 0.0000 0.0001
vn -1.0000 -0.0000 0.0003
vn -0.8707 0.0000 -0.4918
vn -0.8708 0.0000 -0.4917
vn -0.9061 -0.4230 -0.0001
vn -0.8707 0.0000 0.4918
vn -0.9062 0.4230 0.0002
vn -1.0000 0.0005 -0.0000
vn -1.0000 0.0007 -0.0002
vn -1.0000 0.0013 0.0005
vn -1.0000 0.0016 0.0013
vn -1.0000 0.0006 -0.0028
vn -1.0000 -0.0006 -0.0004
vn -1.0000 0.0004 -0.0006
vn -1.0000 0.0000 -0.0003
vn -1.0000 -0.0001 -0.0001
vn -1.0000 -0.0000 -0.0002
vn -1.0000 -0.0001 0.0002
vn -1.0000 -0.0002 0.0002
vn -1.0000 -0.0002 0.0003
vn -1.0000 0.0003 0.0006
vn -1.0000 -0.0009 0.0004
vn -1.0000 0.0003 0.0010
vn -1.0000 0.0013 -0.0010
vn -1.0000 0.0014 -0.0008
vn -1.0000 0.0008 -0.0000
vn -1.0000 0.0003 0.0002
vn -1.0000 0.0005 0.0005
vn -1.0000 0.0000 -0.0010
vn -1.0000 0.0005 0.0001
vn -0.7859 -0.0317 0.6176
vn -0.7860 -0.0320 0.6174
vn -0.8381 0.5456 0.0004
vn -0.8381 0.5455 0.0004
vn -0.7857 -0.0134 -0.6185
vn -0.7855 -0.0136 -0.6186
vn -0.8187 -0.4321 -0.3782
vn -0.8189 -0.4319 -0.3780
vn -0.7851 0.0212 -0.6190
vn -0.8383 -0.5453 0.0001
vn -0.8382 -0.5454 0.0002
vn -0.7854 0.0004 -0.6190
vn -0.7855 0.0004 -0.6188
vn -0.7887 -0.1342 -0.6000
vn -0.8166 -0.4168 -0.3994
vn -0.8292 -0.4961 -0.2576
vn -0.8355 -0.5316 -0.1394
vn -0.8357 -0.5328 0.1333
vn -0.8296 -0.4983 0.2520
vn -0.8170 -0.4196 0.3956
vn -0.8169 -0.4196 0.3957
vn -0.7888 -0.1350 0.5997
vn -0.7856 0.0004 0.6187
vn -0.7854 0.0004 0.6190
vn -0.8382 -0.5454 -0.0002
vn -0.8382 -0.5453 -0.0002
vn -0.7852 0.0213 0.6189
vn -0.7849 0.0214 0.6192
vn -0.8151 -0.4062 0.4129
vn -0.8149 -0.4064 0.4132
vn 1.0000 -0.0000 0.0010
vn 1.0000 -0.0001 -0.0010
vn 1.0000 0.0026 -0.0000
vn 1.0000 0.0000 0.0001
vn 1.0000 0.0000 -0.0003
vn 1.0000 -0.0001 0.0002
# 128 vertex normals

vt 0.9523 0.5881 0.0000
vt 0.9523 0.5781 0.0000
vt 0.9558 0.5781 0.0000
vt 0.9558 0.5881 0.0000
vt 0.9718 0.5731 0.0000
vt 0.9617 0.5730 0.0000
vt 0.9618 0.5699 0.0000
vt 0.9718 0.5699 0.0000
vt 0.9332 0.5781 0.0000
vt 0.9332 0.5882 0.0000
vt 0.9309 0.5882 0.0000
vt 0.9309 0.5781 0.0000
vt 0.9766 0.6010 0.0000
vt 0.9763 0.5909 0.0000
vt 0.9794 0.5908 0.0000
vt 0.9798 0.6009 0.0000
vt 0.6668 0.5730 0.0000
vt 0.6633 0.5730 0.0000
vt 0.6634 0.5705 0.0000
vt 0.6724 0.5819 0.0000
vt 0.6778 0.5730 0.0000
vt 0.9617 0.5838 0.0000
vt 0.9617 0.5797 0.0000
vt 0.9718 0.5797 0.0000
vt 0.9718 0.5838 0.0000
vt 0.6445 0.5806 0.0000
vt 0.6371 0.5716 0.0000
vt 0.6521 0.5716 0.0000
vt 0.9656 0.5910 0.0000
vt 0.9696 0.5910 0.0000
vt 0.9696 0.6011 0.0000
vt 0.9656 0.6011 0.0000
vt 0.9718 0.5765 0.0000
vt 0.9617 0.5763 0.0000
vt 0.9733 0.6011 0.0000
vt 0.9730 0.5910 0.0000
vt 0.6850 0.5669 0.0000
vt 0.6814 0.5704 0.0000
vt 0.6850 0.5662 0.0000
vt 0.7044 0.5636 0.0000
vt 0.7074 0.5614 0.0000
vt 0.7075 0.5630 0.0000
vt 0.9621 0.5908 0.0000
vt 0.9621 0.6008 0.0000
vt 0.9231 0.6008 0.0000
vt 0.9231 0.5908 0.0000
vt 0.9412 0.5781 0.0000
vt 0.9412 0.5882 0.0000
vt 0.9387 0.5882 0.0000
vt 0.9387 0.5781 0.0000
vt 0.7044 0.5079 0.0000
vt 0.7012 0.5016 0.0000
vt 0.7403 0.5016 0.0000
vt 0.7371 0.5079 0.0000
vt 0.9331 0.5752 0.0000
vt 0.9231 0.5752 0.0000
vt 0.9231 0.5715 0.0000
vt 0.9331 0.5715 0.0000
vt 0.6815 0.5730 0.0000
vt 0.6335 0.5676 0.0000
vt 0.6555 0.5676 0.0000
vt 0.6495 0.5786 0.0000
vt 0.6472 0.5798 0.0000
vt 0.9472 0.5781 0.0000
vt 0.9490 0.5781 0.0000
vt 0.9490 0.5882 0.0000
vt 0.9472 0.5882 0.0000
vt 0.6668 0.5770 0.0000
vt 0.6761 0.5804 0.0000
vt 0.6745 0.5813 0.0000
vt 0.9248 0.5882 0.0000
vt 0.9231 0.5882 0.0000
vt 0.9231 0.5781 0.0000
vt 0.9248 0.5781 0.0000
vt 0.6371 0.5733 0.0000
vt 0.9281 0.5882 0.0000
vt 0.9281 0.5781 0.0000
vt 0.9359 0.5781 0.0000
vt 0.9359 0.5882 0.0000
vt 0.9440 0.5781 0.0000
vt 0.9440 0.5882 0.0000
vt 0.6685 0.5804 0.0000
vt 0.6703 0.5813 0.0000
vt 0.6672 0.5790 0.0000
vt 0.6778 0.5770 0.0000
vt 0.6774 0.5791 0.0000
vt 0.6398 0.5787 0.0000
vt 0.6419 0.5798 0.0000
vt 0.6378 0.5766 0.0000
vt 0.6521 0.5733 0.0000
vt 0.6515 0.5766 0.0000
vt 0.7044 0.5597 0.0000
vt 0.7012 0.5636 0.0000
vt 0.6598 0.5666 0.0000
vt 0.6598 0.5662 0.0000
vt 0.7371 0.5636 0.0000
vt 0.7340 0.5634 0.0000
vt 0.7340 0.5614 0.0000
vt 0.6791 0.5016 0.0000
vt 0.6891 0.5016 0.0000
vt 0.6891 0.5636 0.0000
vt 0.6791 0.5636 0.0000
vt 0.6664 0.5016 0.0000
vt 0.6764 0.5016 0.0000
vt 0.6764 0.5636 0.0000
vt 0.6664 0.5636 0.0000
vt 0.7403 0.5636 0.0000
vt 0.7371 0.5597 0.0000
vt 0.8717 0.6008 0.0000
vt 0.8717 0.5710 0.0000
vt 0.9197 0.5710 0.0000
vt 0.9197 0.6008 0.0000
vt 0.6935 0.5035 0.0000
vt 0.6935 0.5515 0.0000
vt 0.6918 0.5533 0.0000
vt 0.6918 0.5016 0.0000
vt 0.9809 0.5558 0.0000
vt 0.9809 0.5857 0.0000
vt 0.9788 0.5871 0.0000
vt 0.9788 0.5544 0.0000
vt 0.6980 0.5035 0.0000
vt 0.6980 0.5515 0.0000
vt 0.6962 0.5533 0.0000
vt 0.6962 0.5016 0.0000
vt 0.9832 0.5840 0.0000
vt 0.9832 0.5542 0.0000
vt 0.9854 0.5527 0.0000
vt 0.9854 0.5855 0.0000
vt 0.7110 0.5699 0.0000
vt 0.7144 0.5699 0.0000
vt 0.7131 0.5716 0.0000
vt 0.7096 0.5716 0.0000
vt 0.7111 0.5669 0.0000
vt 0.7097 0.5676 0.0000
vt 0.7077 0.5646 0.0000
vt 0.7338 0.5649 0.0000
vt 0.7304 0.5668 0.0000
vt 0.7317 0.5676 0.0000
vt 0.7305 0.5699 0.0000
vt 0.7318 0.5716 0.0000
vt 0.7268 0.5699 0.0000
vt 0.7281 0.5716 0.0000
vt 0.7268 0.5731 0.0000
vt 0.7281 0.5733 0.0000
vt 0.7263 0.5756 0.0000
vt 0.7275 0.5766 0.0000
vt 0.7248 0.5772 0.0000
vt 0.7255 0.5787 0.0000
vt 0.7230 0.5781 0.0000
vt 0.7234 0.5798 0.0000
vt 0.7207 0.5788 0.0000
vt 0.7207 0.5806 0.0000
vt 0.7184 0.5782 0.0000
vt 0.7180 0.5798 0.0000
vt 0.7165 0.5771 0.0000
vt 0.7158 0.5786 0.0000
vt 0.7150 0.5756 0.0000
vt 0.7138 0.5766 0.0000
vt 0.7144 0.5731 0.0000
vt 0.7131 0.5733 0.0000
vt 0.9663 0.5884 0.0000
vt 0.9660 0.5884 0.0000
vt 0.9656 0.5875 0.0000
vt 0.9672 0.5875 0.0000
vt 0.9750 0.5870 0.0000
vt 0.9750 0.5617 0.0000
vt 0.9760 0.5610 0.0000
vt 0.9760 0.5876 0.0000
vt 0.9461 0.5743 0.0000
vt 0.9469 0.5743 0.0000
vt 0.9477 0.5752 0.0000
vt 0.9457 0.5752 0.0000
vt 0.7088 0.5701 0.0000
vt 0.7094 0.5751 0.0000
vt 0.7084 0.5754 0.0000
vt 0.7078 0.5704 0.0000
vt 0.9598 0.5875 0.0000
vt 0.9624 0.5876 0.0000
vt 0.9620 0.5885 0.0000
vt 0.9590 0.5884 0.0000
vt 0.6542 0.5750 0.0000
vt 0.6542 0.5787 0.0000
vt 0.6532 0.5793 0.0000
vt 0.6532 0.5757 0.0000
vt 0.6270 0.5708 0.0000
vt 0.6270 0.5668 0.0000
vt 0.6279 0.5676 0.0000
vt 0.6279 0.5709 0.0000
vt 0.6267 0.5729 0.0000
vt 0.6275 0.5733 0.0000
vt 0.9384 0.5748 0.0000
vt 0.9366 0.5752 0.0000
vt 0.9363 0.5743 0.0000
vt 0.9385 0.5737 0.0000
vt 0.9403 0.5748 0.0000
vt 0.9405 0.5737 0.0000
vt 0.9424 0.5751 0.0000
vt 0.9428 0.5741 0.0000
vt 0.6602 0.5783 0.0000
vt 0.6583 0.5793 0.0000
vt 0.6576 0.5785 0.0000
vt 0.6597 0.5774 0.0000
vt 0.6622 0.5778 0.0000
vt 0.6618 0.5768 0.0000
vt 0.6640 0.5777 0.0000
vt 0.6639 0.5767 0.0000
vt 0.6578 0.5710 0.0000
vt 0.6576 0.5689 0.0000
vt 0.6584 0.5684 0.0000
vt 0.6587 0.5709 0.0000
vt 0.6577 0.5750 0.0000
vt 0.6586 0.5742 0.0000
vt 0.6984 0.5564 0.0000
vt 0.6984 0.5598 0.0000
vt 0.6973 0.5592 0.0000
vt 0.6973 0.5557 0.0000
vt 0.6795 0.5762 0.0000
vt 0.6795 0.5786 0.0000
vt 0.6785 0.5795 0.0000
vt 0.6786 0.5765 0.0000
vt 0.6342 0.5752 0.0000
vt 0.6343 0.5805 0.0000
vt 0.6333 0.5804 0.0000
vt 0.6333 0.5750 0.0000
vt 0.6315 0.5651 0.0000
vt 0.6576 0.5649 0.0000
vt 0.6556 0.5716 0.0000
vt 0.6334 0.5716 0.0000
vt 0.6282 0.5636 0.0000
vt 0.6609 0.5636 0.0000
vt 0.6250 0.5016 0.0000
vt 0.6641 0.5016 0.0000
vt 0.6641 0.5636 0.0000
vt 0.6250 0.5636 0.0000
# 234 texture coords

o TombeV_1
g TombeV_1
s off
f 1/1/1 2/2/1 3/3/1 4/4/1 
f 5/5/2 6/6/3 7/7/1 8/8/1 
f 9/9/4 10/10/4 11/11/5 12/12/5 
f 13/13/6 14/14/7 15/15/1 16/16/1 
f 17/17/8 18/18/9 19/19/10 
f 20/20/11 17/17/8 21/21/12 
f 22/22/13 23/23/13 24/24/13 25/25/13 
f 26/26/14 27/27/15 4/28/16 
f 1/29/17 28/30/17 29/31/17 2/32/17 
f 30/33/18 31/34/19 6/6/3 5/5/2 
f 32/35/20 33/36/21 14/14/7 13/13/6 
f 34/37/22 35/38/23 36/39/24 
f 13/40/25 37/41/25 38/42/25 
f 31/34/19 30/33/18 24/24/26 23/23/27 
f 33/36/28 32/35/29 29/31/30 28/30/31 
f 39/43/32 40/44/32 41/45/32 42/46/32 
f 43/47/33 44/48/33 45/49/34 46/50/34 
f 47/51/35 39/52/36 42/53/37 48/54/37 
f 27/55/1 49/56/1 22/57/1 25/58/1 
f 21/21/12 35/38/38 50/59/39 
f 4/28/16 27/27/40 24/60/41 28/61/42 
f 26/26/43 43/62/43 46/63/43 
f 51/64/44 4/65/45 3/66/45 52/67/44 
f 17/17/8 20/20/11 53/68/46 
f 20/20/47 54/69/47 55/70/47 
f 56/71/48 49/72/49 27/73/49 57/74/48 
f 27/27/50 26/26/14 57/75/43 
f 58/76/51 59/77/51 12/12/5 11/11/5 
f 26/78/52 60/79/52 10/10/4 9/9/4 
f 60/79/52 26/78/52 46/50/34 45/49/34 
f 61/80/53 62/81/53 44/48/33 43/47/33 
f 62/81/54 61/80/54 51/64/44 52/67/44 
f 59/77/55 58/76/55 56/71/48 57/74/48 
f 20/20/11 63/82/47 53/68/46 
f 63/82/47 20/20/47 64/83/47 
f 63/82/47 65/84/37 53/68/46 
f 20/20/11 21/21/12 66/85/56 
f 66/85/56 67/86/37 54/69/47 
f 20/20/11 66/85/56 54/69/47 
f 26/26/14 12/87/43 57/75/43 
f 12/87/43 26/26/43 9/88/43 
f 12/87/43 59/89/43 57/75/43 
f 26/26/14 4/28/57 51/90/43 
f 51/90/43 61/91/43 43/62/43 
f 26/26/14 51/90/43 43/62/43 
f 68/92/47 16/93/47 39/52/47 47/51/47 
f 69/94/58 70/95/59 19/19/10 
f 6/96/60 71/97/60 72/98/60 
f 70/95/61 36/39/11 35/38/47 19/19/62 
f 40/99/45 39/100/45 16/101/45 15/102/45 
f 42/103/49 41/104/49 8/105/49 7/106/49 
f 48/54/37 42/53/47 7/107/47 73/108/47 
f 74/109/63 75/110/47 76/111/47 77/112/64 
f 76/113/65 75/114/66 48/115/65 73/116/65 
f 77/117/67 76/118/67 73/119/67 68/120/67 
f 74/121/68 77/122/68 68/123/68 47/124/68 
f 75/125/69 74/126/69 47/127/69 48/128/69 
f 78/129/70 79/130/71 3/131/70 2/132/70 
f 80/133/72 78/129/73 2/132/72 29/134/72 
f 38/42/74 80/133/75 29/134/74 32/135/74 
f 38/42/76 32/135/77 13/40/77 
f 13/40/37 16/93/37 68/92/37 
f 37/41/78 13/40/79 68/92/78 
f 72/98/80 37/41/81 68/92/80 73/108/80 
f 6/96/64 72/98/82 73/108/64 
f 6/96/37 73/108/47 7/107/47 
f 71/97/83 6/96/83 31/136/83 
f 81/137/84 71/97/85 31/136/84 23/138/84 
f 82/139/86 81/137/87 23/138/86 22/140/86 
f 83/141/88 82/139/89 22/140/88 49/142/88 
f 84/143/47 83/141/90 49/142/47 56/144/47 
f 85/145/47 84/143/47 56/144/47 58/146/47 
f 86/147/47 85/145/47 58/146/47 11/148/47 
f 87/149/47 86/147/47 11/148/47 10/150/47 
f 88/151/47 87/149/47 10/150/47 60/152/47 
f 89/153/47 88/151/47 60/152/47 45/154/47 
f 90/155/47 89/153/47 45/154/47 44/156/47 
f 91/157/47 90/155/47 44/156/47 62/158/47 
f 92/159/47 91/157/47 62/158/47 52/160/47 
f 79/130/91 92/159/92 52/160/91 3/131/91 
f 70/161/93 69/162/94 38/163/93 37/164/93 
f 36/165/95 70/166/96 37/167/95 72/168/95 
f 34/169/97 36/170/98 72/171/97 71/172/97 
f 35/173/99 34/174/100 71/175/99 81/176/99 
f 50/177/101 35/178/101 81/179/101 82/180/101 
f 21/181/102 50/182/103 82/183/102 83/184/102 
f 66/185/104 21/186/105 83/187/104 84/188/104 
f 67/189/106 66/185/106 84/188/106 85/190/106 
f 54/191/107 67/192/107 85/193/107 86/194/107 
f 55/195/108 54/191/108 86/194/108 87/196/108 
f 20/197/109 55/195/109 87/196/109 88/198/109 
f 64/199/110 20/200/110 88/201/110 89/202/110 
f 63/203/111 64/199/111 89/202/111 90/204/111 
f 65/205/112 63/203/113 90/204/112 91/206/112 
f 53/207/114 65/208/114 91/209/114 92/210/114 
f 17/211/115 53/207/116 92/210/115 79/212/115 
f 18/213/117 17/214/118 79/215/117 78/216/117 
f 19/217/119 18/218/120 78/219/119 80/220/119 
f 69/221/121 19/222/122 80/223/121 38/224/121 
f 17/17/8 19/19/62 35/38/47 21/21/12 
f 24/60/41 30/225/123 33/226/124 28/61/42 
f 28/61/42 1/227/125 4/28/16 
f 27/27/40 25/228/125 24/60/41 
f 30/225/123 5/229/126 14/230/127 33/226/124 
f 5/229/126 41/231/43 40/232/128 14/230/127 
f 40/232/128 15/233/43 14/230/127 
f 5/229/126 8/234/43 41/231/43 
# 73 polygons - 34 triangles

