# 3ds Max Wavefront OBJ Exporter v0.99 - (c)2007 guruware
# File Created: 26.03.2022 15:33:45

#
# object TombeH_5
#

v  0.8538 0.0000 0.7000
v  0.8538 0.0000 -0.7000
v  1.8538 0.0000 -0.7000
v  1.8538 0.0000 0.7000
v  1.7838 1.1080 0.6300
v  1.7838 1.1080 -0.6300
v  0.9238 1.1080 -0.6300
v  0.9238 1.1080 0.6300
v  0.9038 0.0500 0.6500
v  1.8038 0.0500 0.6500
v  1.8038 0.6500 0.6500
v  0.9038 0.6500 0.6500
v  1.8038 0.0500 -0.6500
v  1.8038 0.6500 -0.6500
v  0.9038 0.0500 -0.6500
v  0.9038 0.6500 -0.6500
v  -1.8038 0.0500 -0.6500
v  -1.8038 0.0500 0.6500
v  -1.8038 0.6500 0.6500
v  -1.8038 0.6500 -0.6500
v  1.8038 0.0500 0.7000
v  0.9038 0.0500 0.7000
v  1.8538 0.7000 0.7000
v  1.8038 0.6500 0.7000
v  0.8538 0.7000 0.7000
v  0.9038 0.6500 0.7000
v  1.8538 0.0500 -0.6500
v  1.8538 0.0500 0.6500
v  1.8538 0.7000 -0.7000
v  1.8538 0.6500 -0.6500
v  1.8538 0.6500 0.6500
v  0.9038 0.0500 -0.7000
v  1.8038 0.0500 -0.7000
v  0.8538 0.7000 -0.7000
v  0.9038 0.6500 -0.7000
v  1.8038 0.6500 -0.7000
v  -1.8538 0.0000 -0.7000
v  -1.8538 0.0000 0.7000
v  -1.8538 0.0500 0.6500
v  -1.8538 0.0500 -0.6500
v  0.8538 0.6500 0.6500
v  0.8538 0.0500 0.6500
v  0.8538 0.6500 -0.6500
v  0.8538 0.0500 -0.6500
v  1.8038 0.7000 0.6500
v  0.9038 0.7000 0.6500
v  1.8038 0.7000 -0.6500
v  0.9038 0.7000 -0.6500
v  1.8038 0.8000 0.6500
v  0.9038 0.8000 0.6500
v  1.8038 0.8000 -0.6500
v  0.9038 0.8000 -0.6500
v  1.7190 0.8000 0.5275
v  0.9886 0.8000 0.5275
v  1.7190 0.8000 -0.5275
v  0.9886 0.8000 -0.5275
v  1.7190 0.9672 0.5275
v  0.9886 0.9672 0.5275
v  1.7190 0.9672 -0.5275
v  0.9886 0.9672 -0.5275
v  1.7838 0.9672 0.6300
v  0.9238 0.9672 0.6300
v  1.7838 0.9672 -0.6300
v  0.9238 0.9672 -0.6300
v  1.8038 0.9872 0.6500
v  1.8038 1.0880 0.6500
v  0.9038 1.0880 0.6500
v  0.9038 0.9872 0.6500
v  1.8038 0.9872 -0.6500
v  1.8038 1.0880 -0.6500
v  0.9038 0.9872 -0.6500
v  0.9038 1.0880 -0.6500
v  0.9088 1.1030 0.6450
v  1.7988 1.1030 0.6450
v  1.7988 1.1030 -0.6450
v  0.9088 1.1030 -0.6450
v  1.7988 0.9722 0.6450
v  0.9088 0.9722 0.6450
v  1.7988 0.9722 -0.6450
v  0.9088 0.9722 -0.6450
# 80 vertices

vn 0.0000 -1.0000 -0.0000
vn 0.1430 0.9838 0.1084
vn 0.1430 0.9838 -0.1084
vn -0.1430 0.9838 -0.1084
vn -0.1430 0.9838 0.1084
vn 0.0000 0.0000 1.0000
vn 1.0000 0.0000 -0.0000
vn 0.0000 0.0000 -1.0000
vn -1.0000 0.0000 -0.0000
vn 0.0000 1.0000 -0.0000
vn 0.1430 -0.9838 0.1084
vn -0.1430 -0.9838 0.1084
vn 0.1430 -0.9838 -0.1084
vn -0.1430 -0.9838 -0.1084
vn 0.0000 -0.1558 0.9878
vn 0.0000 0.1558 0.9878
vn 0.9923 -0.1242 -0.0000
vn 0.9923 0.1242 -0.0000
vn 0.0000 -0.1558 -0.9878
vn 0.0000 0.1558 -0.9878
vn -0.9923 -0.1242 -0.0000
vn -0.9923 0.1242 -0.0000
vn -0.1609 0.9722 0.1703
vn 0.1609 0.9722 0.1703
vn 0.1609 0.9722 -0.1703
vn -0.1609 0.9722 -0.1703
vn 0.1609 -0.9722 0.1703
vn -0.1609 -0.9722 0.1703
vn 0.1609 -0.9722 -0.1703
vn -0.1609 -0.9722 -0.1703
vn 0.0000 -0.3385 0.9410
vn 0.0000 0.3385 0.9410
vn 0.9603 -0.2790 -0.0000
vn 0.9603 0.2790 -0.0000
vn 0.0000 -0.3385 -0.9410
vn 0.0000 0.3385 -0.9410
vn -0.9603 -0.2790 -0.0000
vn -0.9603 0.2790 -0.0000
vn 0.0000 0.7335 0.6796
vn 0.0000 0.7335 -0.6796
# 40 vertex normals

vt 0.4176 0.2058 0.0000
vt 0.4176 0.1498 0.0000
vt 0.4576 0.1498 0.0000
vt 0.4576 0.2058 0.0000
vt 0.4880 0.3625 0.0000
vt 0.4376 0.3625 0.0000
vt 0.4376 0.3281 0.0000
vt 0.4880 0.3281 0.0000
vt 0.5246 0.3963 0.0000
vt 0.5606 0.3963 0.0000
vt 0.5606 0.4203 0.0000
vt 0.5246 0.4203 0.0000
vt 0.3094 0.3913 0.0000
vt 0.3613 0.3913 0.0000
vt 0.3613 0.4153 0.0000
vt 0.3094 0.4153 0.0000
vt 0.5168 0.4203 0.0000
vt 0.4808 0.4203 0.0000
vt 0.4808 0.3963 0.0000
vt 0.5168 0.3963 0.0000
vt 0.4758 0.2950 0.0000
vt 0.5278 0.2950 0.0000
vt 0.5278 0.3190 0.0000
vt 0.4758 0.3190 0.0000
vt 0.4158 0.4213 0.0000
vt 0.4158 0.3813 0.0000
vt 0.4178 0.3833 0.0000
vt 0.4178 0.4193 0.0000
vt 0.4437 0.3813 0.0000
vt 0.4417 0.3833 0.0000
vt 0.4437 0.4213 0.0000
vt 0.4417 0.4193 0.0000
vt 0.5347 0.2984 0.0000
vt 0.5347 0.2424 0.0000
vt 0.5367 0.2444 0.0000
vt 0.5367 0.2964 0.0000
vt 0.5626 0.2424 0.0000
vt 0.5606 0.2444 0.0000
vt 0.5626 0.2984 0.0000
vt 0.5606 0.2964 0.0000
vt 0.4082 0.4131 0.0000
vt 0.3682 0.4131 0.0000
vt 0.3702 0.4111 0.0000
vt 0.4062 0.4111 0.0000
vt 0.3682 0.3851 0.0000
vt 0.3702 0.3871 0.0000
vt 0.4082 0.3851 0.0000
vt 0.4062 0.3871 0.0000
vt 0.5767 0.1798 0.0000
vt 0.5767 0.2358 0.0000
vt 0.5747 0.2338 0.0000
vt 0.5747 0.1818 0.0000
vt 0.5614 0.2370 0.0000
vt 0.5334 0.2370 0.0000
vt 0.5354 0.2350 0.0000
vt 0.5594 0.2350 0.0000
vt 0.5334 0.1811 0.0000
vt 0.5354 0.1831 0.0000
vt 0.5614 0.1811 0.0000
vt 0.5594 0.1831 0.0000
vt 0.4042 0.4221 0.0000
vt 0.3682 0.4221 0.0000
vt 0.3682 0.4201 0.0000
vt 0.4042 0.4201 0.0000
vt 0.5347 0.3112 0.0000
vt 0.5586 0.3112 0.0000
vt 0.5586 0.3132 0.0000
vt 0.5347 0.3132 0.0000
vt 0.4946 0.3622 0.0000
vt 0.4946 0.3263 0.0000
vt 0.4966 0.3263 0.0000
vt 0.4966 0.3622 0.0000
vt 0.5747 0.3828 0.0000
vt 0.5747 0.3588 0.0000
vt 0.5767 0.3588 0.0000
vt 0.5767 0.3828 0.0000
vt 0.3727 0.3275 0.0000
vt 0.3727 0.3795 0.0000
vt 0.3707 0.3795 0.0000
vt 0.3707 0.3275 0.0000
vt 0.5704 0.3963 0.0000
vt 0.5704 0.4203 0.0000
vt 0.5684 0.4203 0.0000
vt 0.5684 0.3963 0.0000
vt 0.3613 0.3858 0.0000
vt 0.3094 0.3858 0.0000
vt 0.3094 0.3838 0.0000
vt 0.3613 0.3838 0.0000
vt 0.5586 0.3057 0.0000
vt 0.5347 0.3057 0.0000
vt 0.5347 0.3037 0.0000
vt 0.5586 0.3037 0.0000
vt 0.4708 0.4185 0.0000
vt 0.4708 0.3826 0.0000
vt 0.4728 0.3826 0.0000
vt 0.4728 0.4185 0.0000
vt 0.5667 0.1849 0.0000
vt 0.5667 0.2088 0.0000
vt 0.5647 0.2088 0.0000
vt 0.5647 0.1849 0.0000
vt 0.5168 0.3896 0.0000
vt 0.4808 0.3896 0.0000
vt 0.4808 0.3876 0.0000
vt 0.5168 0.3876 0.0000
vt 0.5547 0.2088 0.0000
vt 0.5547 0.1849 0.0000
vt 0.5567 0.1849 0.0000
vt 0.5567 0.2088 0.0000
vt 0.3653 0.3275 0.0000
vt 0.3653 0.3675 0.0000
vt 0.3633 0.3655 0.0000
vt 0.3633 0.3295 0.0000
vt 0.3094 0.3675 0.0000
vt 0.3114 0.3655 0.0000
vt 0.3094 0.3275 0.0000
vt 0.3114 0.3295 0.0000
vt 0.4608 0.4185 0.0000
vt 0.4608 0.3826 0.0000
vt 0.4648 0.3826 0.0000
vt 0.4648 0.4185 0.0000
vt 0.5762 0.3000 0.0000
vt 0.5762 0.3519 0.0000
vt 0.5722 0.3519 0.0000
vt 0.5722 0.3000 0.0000
vt 0.5474 0.1849 0.0000
vt 0.5474 0.2208 0.0000
vt 0.5434 0.2208 0.0000
vt 0.5434 0.1849 0.0000
vt 0.3782 0.3713 0.0000
vt 0.4302 0.3713 0.0000
vt 0.4302 0.3753 0.0000
vt 0.3782 0.3753 0.0000
vt 0.4302 0.3275 0.0000
vt 0.4302 0.3635 0.0000
vt 0.4253 0.3601 0.0000
vt 0.4253 0.3309 0.0000
vt 0.3782 0.3635 0.0000
vt 0.3831 0.3601 0.0000
vt 0.3782 0.3275 0.0000
vt 0.3831 0.3309 0.0000
vt 0.5538 0.3905 0.0000
vt 0.5246 0.3905 0.0000
vt 0.5246 0.3838 0.0000
vt 0.5538 0.3838 0.0000
vt 0.5146 0.3684 0.0000
vt 0.5146 0.3263 0.0000
vt 0.5213 0.3263 0.0000
vt 0.5213 0.3684 0.0000
vt 0.5100 0.3818 0.0000
vt 0.4808 0.3818 0.0000
vt 0.4808 0.3751 0.0000
vt 0.5100 0.3751 0.0000
vt 0.5021 0.3684 0.0000
vt 0.5021 0.3263 0.0000
vt 0.5088 0.3263 0.0000
vt 0.5088 0.3684 0.0000
vt 0.5303 0.3310 0.0000
vt 0.5277 0.3269 0.0000
vt 0.5621 0.3269 0.0000
vt 0.5595 0.3310 0.0000
vt 0.5303 0.3731 0.0000
vt 0.5277 0.3772 0.0000
vt 0.5595 0.3731 0.0000
vt 0.5621 0.3772 0.0000
vt 0.4502 0.3826 0.0000
vt 0.4542 0.3826 0.0000
vt 0.4542 0.4186 0.0000
vt 0.4502 0.4186 0.0000
vt 0.3614 0.3732 0.0000
vt 0.3614 0.3772 0.0000
vt 0.3094 0.3772 0.0000
vt 0.3094 0.3732 0.0000
vt 0.4370 0.3747 0.0000
vt 0.4370 0.3707 0.0000
vt 0.4730 0.3707 0.0000
vt 0.4730 0.3747 0.0000
vt 0.5743 0.2931 0.0000
vt 0.5703 0.2931 0.0000
vt 0.5703 0.2412 0.0000
vt 0.5743 0.2412 0.0000
vt 0.4886 0.3275 0.0000
vt 0.4886 0.3631 0.0000
vt 0.4370 0.3631 0.0000
vt 0.4370 0.3275 0.0000
vt 0.5271 0.3263 0.0000
vt 0.5627 0.3263 0.0000
vt 0.5271 0.3778 0.0000
vt 0.5627 0.3778 0.0000
vt 0.4496 0.4184 0.0000
vt 0.4496 0.3828 0.0000
vt 0.4548 0.3828 0.0000
vt 0.4548 0.4184 0.0000
vt 0.3096 0.3726 0.0000
vt 0.3612 0.3726 0.0000
vt 0.3612 0.3778 0.0000
vt 0.3096 0.3778 0.0000
vt 0.4728 0.3753 0.0000
vt 0.4372 0.3753 0.0000
vt 0.4372 0.3701 0.0000
vt 0.4728 0.3701 0.0000
vt 0.5749 0.2414 0.0000
vt 0.5749 0.2929 0.0000
vt 0.5697 0.2929 0.0000
vt 0.5697 0.2414 0.0000
vt 0.3094 0.2058 0.0000
vt 0.3094 0.1498 0.0000
vt 0.3210 0.3218 0.0000
vt 0.3182 0.3218 0.0000
vt 0.3182 0.2136 0.0000
vt 0.3210 0.2136 0.0000
vt 0.3801 0.3206 0.0000
vt 0.3282 0.3206 0.0000
vt 0.3282 0.2124 0.0000
vt 0.3801 0.2124 0.0000
vt 0.3094 0.2111 0.0000
vt 0.3122 0.2111 0.0000
vt 0.3122 0.3193 0.0000
vt 0.3094 0.3193 0.0000
vt 0.3870 0.2124 0.0000
vt 0.4389 0.2124 0.0000
vt 0.4389 0.3186 0.0000
vt 0.3870 0.3186 0.0000
vt 0.4458 0.2124 0.0000
vt 0.4698 0.2124 0.0000
vt 0.4698 0.3186 0.0000
vt 0.4458 0.3186 0.0000
vt 0.4758 0.1811 0.0000
vt 0.5278 0.1811 0.0000
vt 0.5278 0.2873 0.0000
vt 0.4758 0.2873 0.0000
vt 0.5708 0.1498 0.0000
vt 0.5708 0.1738 0.0000
vt 0.4646 0.1738 0.0000
vt 0.4646 0.1498 0.0000
# 234 texture coords

o TombeH_5
g TombeH_5
s off
f 1/1/1 2/2/1 3/3/1 4/4/1 
f 5/5/2 6/6/3 7/7/4 8/8/5 
f 9/9/6 10/10/6 11/11/6 12/12/6 
f 10/13/7 13/14/7 14/15/7 11/16/7 
f 13/17/8 15/18/8 16/19/8 14/20/8 
f 17/21/9 18/22/9 19/23/9 20/24/9 
f 1/25/6 4/26/6 21/27/6 22/28/6 
f 4/26/6 23/29/6 24/30/6 21/27/6 
f 23/29/6 25/31/6 26/32/6 24/30/6 
f 25/31/6 1/25/6 22/28/6 26/32/6 
f 4/33/7 3/34/7 27/35/7 28/36/7 
f 3/34/7 29/37/7 30/38/7 27/35/7 
f 29/37/7 23/39/7 31/40/7 30/38/7 
f 23/39/7 4/33/7 28/36/7 31/40/7 
f 3/41/8 2/42/8 32/43/8 33/44/8 
f 2/42/8 34/45/8 35/46/8 32/43/8 
f 34/45/8 29/47/8 36/48/8 35/46/8 
f 29/47/8 3/41/8 33/44/8 36/48/8 
f 37/49/9 38/50/9 39/51/9 40/52/9 
f 1/53/9 25/54/9 41/55/9 42/56/9 
f 25/54/9 34/57/9 43/58/9 41/55/9 
f 34/57/9 2/59/9 44/60/9 43/58/9 
f 22/61/10 21/62/10 10/63/10 9/64/10 
f 21/65/9 24/66/9 11/67/9 10/68/9 
f 24/69/1 26/70/1 12/71/1 11/72/1 
f 26/73/7 22/74/7 9/75/7 12/76/7 
f 28/77/10 27/78/10 13/79/10 10/80/10 
f 27/81/6 30/82/6 14/83/6 13/84/6 
f 30/85/1 31/86/1 11/87/1 14/88/1 
f 31/89/8 28/90/8 10/91/8 11/92/8 
f 33/93/10 32/94/10 15/95/10 13/96/10 
f 32/97/7 35/98/7 16/99/7 15/100/7 
f 35/101/1 36/102/1 14/103/1 16/104/1 
f 36/105/9 33/106/9 13/107/9 14/108/9 
f 25/109/10 23/110/10 45/111/10 46/112/10 
f 23/110/10 29/113/10 47/114/10 45/111/10 
f 29/113/10 34/115/10 48/116/10 47/114/10 
f 34/115/10 25/109/10 46/112/10 48/116/10 
f 46/117/6 45/118/6 49/119/6 50/120/6 
f 45/121/7 47/122/7 51/123/7 49/124/7 
f 47/125/8 48/126/8 52/127/8 51/128/8 
f 48/129/9 46/130/9 50/131/9 52/132/9 
f 50/133/10 49/134/10 53/135/10 54/136/10 
f 49/134/10 51/137/10 55/138/10 53/135/10 
f 51/137/10 52/139/10 56/140/10 55/138/10 
f 52/139/10 50/133/10 54/136/10 56/140/10 
f 54/141/6 53/142/6 57/143/6 58/144/6 
f 53/145/7 55/146/7 59/147/7 57/148/7 
f 55/149/8 56/150/8 60/151/8 59/152/8 
f 56/153/9 54/154/9 58/155/9 60/156/9 
f 57/157/1 61/158/11 62/159/12 58/160/1 
f 59/161/1 63/162/13 61/158/11 57/157/1 
f 60/163/1 64/164/14 63/162/13 59/161/1 
f 58/160/1 62/159/12 64/164/14 60/163/1 
f 65/165/15 66/166/16 67/167/16 68/168/15 
f 69/169/17 70/170/18 66/171/18 65/172/17 
f 71/173/19 72/174/20 70/175/20 69/176/19 
f 68/177/21 67/178/22 72/179/22 71/180/21 
f 5/5/2 8/8/5 73/181/23 74/182/24 
f 6/6/3 5/5/2 74/182/24 75/183/25 
f 7/7/4 6/6/3 75/183/25 76/184/26 
f 8/8/5 7/7/4 76/184/26 73/181/23 
f 62/159/12 61/158/11 77/185/27 78/186/28 
f 61/158/11 63/162/13 79/187/29 77/185/27 
f 63/162/13 64/164/14 80/188/30 79/187/29 
f 64/164/14 62/159/12 78/186/28 80/188/30 
f 65/165/15 68/168/15 78/189/31 77/190/31 
f 67/167/16 66/166/16 74/191/32 73/192/32 
f 69/169/17 65/172/17 77/193/33 79/194/33 
f 66/171/18 70/170/18 75/195/34 74/196/34 
f 71/173/19 69/176/19 79/197/35 80/198/35 
f 70/175/20 72/174/20 76/199/36 75/200/36 
f 68/177/21 71/180/21 80/201/37 78/202/37 
f 72/179/22 67/178/22 73/203/38 76/204/38 
f 2/2/1 1/1/1 38/205/1 37/206/1 
f 1/207/39 42/208/39 39/209/39 38/210/39 
f 42/211/10 44/212/10 40/213/10 39/214/10 
f 44/215/40 2/216/40 37/217/40 40/218/40 
f 18/219/1 17/220/1 44/221/1 42/222/1 
f 19/223/6 18/224/6 42/225/6 41/226/6 
f 20/227/10 19/228/10 41/229/10 43/230/10 
f 17/231/8 20/232/8 43/233/8 44/234/8 
# 82 polygons

