# 3ds Max Wavefront OBJ Exporter v0.99 - (c)2007 guruware
# File Created: 26.03.2022 15:33:46

#
# object TombeV_6
#

v  -0.5000 0.0000 0.7000
v  -0.5000 0.0000 -0.7000
v  0.5000 0.0000 -0.7000
v  0.5000 0.0000 0.7000
v  0.4300 1.1080 0.6300
v  0.4300 1.1080 -0.6300
v  -0.4300 1.1080 -0.6300
v  -0.4300 1.1080 0.6300
v  0.4500 0.0500 0.7000
v  -0.4500 0.0500 0.7000
v  0.5000 0.7000 0.7000
v  0.4500 0.6500 0.7000
v  -0.5000 0.7000 0.7000
v  -0.4500 0.6500 0.7000
v  0.5000 0.0500 -0.6500
v  0.5000 0.0500 0.6500
v  0.5000 0.7000 -0.7000
v  0.5000 0.6500 -0.6500
v  0.5000 0.6500 0.6500
v  -0.4500 0.0500 -0.7000
v  0.4500 0.0500 -0.7000
v  -0.5000 0.7000 -0.7000
v  -0.4500 0.6500 -0.7000
v  0.4500 0.6500 -0.7000
v  -0.5000 0.0500 0.6500
v  -0.5000 0.0500 -0.6500
v  -0.5000 0.6500 0.6500
v  -0.5000 0.6500 -0.6500
v  0.4500 0.0500 0.6500
v  -0.4500 0.0500 0.6500
v  0.4500 0.6500 0.6500
v  -0.4500 0.6500 0.6500
v  0.4500 0.0500 -0.6500
v  0.4500 0.6500 -0.6500
v  -0.4500 0.0500 -0.6500
v  -0.4500 0.6500 -0.6500
v  0.4500 0.7000 0.6500
v  -0.4500 0.7000 0.6500
v  0.4500 0.7000 -0.6500
v  -0.4500 0.7000 -0.6500
v  0.4500 0.8000 0.6500
v  -0.4500 0.8000 0.6500
v  0.4500 0.8000 -0.6500
v  -0.4500 0.8000 -0.6500
v  0.3652 0.8000 0.5275
v  -0.3652 0.8000 0.5275
v  0.3652 0.8000 -0.5275
v  -0.3652 0.8000 -0.5275
v  0.3652 0.9672 0.5275
v  -0.3652 0.9672 0.5275
v  0.3652 0.9672 -0.5275
v  -0.3652 0.9672 -0.5275
v  0.4300 0.9672 0.6300
v  -0.4300 0.9672 0.6300
v  0.4300 0.9672 -0.6300
v  -0.4300 0.9672 -0.6300
v  0.4500 0.9872 0.6500
v  0.4500 1.0880 0.6500
v  -0.4500 1.0880 0.6500
v  -0.4500 0.9872 0.6500
v  0.4500 0.9872 -0.6500
v  0.4500 1.0880 -0.6500
v  -0.4500 0.9872 -0.6500
v  -0.4500 1.0880 -0.6500
v  -0.4450 1.1030 0.6450
v  0.4450 1.1030 0.6450
v  0.4450 1.1030 -0.6450
v  -0.4450 1.1030 -0.6450
v  0.4450 0.9722 0.6450
v  -0.4450 0.9722 0.6450
v  0.4450 0.9722 -0.6450
v  -0.4450 0.9722 -0.6450
# 72 vertices

vn 0.0000 -1.0000 -0.0000
vn 0.1430 0.9838 0.1084
vn 0.1430 0.9838 -0.1084
vn -0.1430 0.9838 -0.1084
vn -0.1430 0.9838 0.1084
vn 0.0000 0.0000 1.0000
vn 1.0000 0.0000 -0.0000
vn 0.0000 0.0000 -1.0000
vn -1.0000 0.0000 -0.0000
vn 0.0000 1.0000 -0.0000
vn 0.1430 -0.9838 0.1084
vn -0.1430 -0.9838 0.1084
vn 0.1430 -0.9838 -0.1084
vn -0.1430 -0.9838 -0.1084
vn 0.0000 -0.1558 0.9878
vn 0.0000 0.1558 0.9878
vn 0.9923 -0.1242 -0.0000
vn 0.9923 0.1242 -0.0000
vn 0.0000 -0.1558 -0.9878
vn 0.0000 0.1558 -0.9878
vn -0.9923 -0.1242 -0.0000
vn -0.9923 0.1242 -0.0000
vn -0.1609 0.9722 0.1703
vn 0.1609 0.9722 0.1703
vn 0.1609 0.9722 -0.1703
vn -0.1609 0.9722 -0.1703
vn 0.1609 -0.9722 0.1703
vn -0.1609 -0.9722 0.1703
vn 0.1609 -0.9722 -0.1703
vn -0.1609 -0.9722 -0.1703
vn 0.0000 -0.3385 0.9410
vn 0.0000 0.3385 0.9410
vn 0.9603 -0.2790 -0.0000
vn 0.9603 0.2790 -0.0000
vn 0.0000 -0.3385 -0.9410
vn 0.0000 0.3385 -0.9410
vn -0.9603 -0.2790 -0.0000
vn -0.9603 0.2790 -0.0000
# 38 vertex normals

vt 0.7844 0.2564 0.0000
vt 0.7844 0.2005 0.0000
vt 0.8244 0.2005 0.0000
vt 0.8244 0.2564 0.0000
vt 0.8641 0.2373 0.0000
vt 0.8641 0.2877 0.0000
vt 0.8297 0.2877 0.0000
vt 0.8297 0.2373 0.0000
vt 0.9372 0.2300 0.0000
vt 0.9372 0.2699 0.0000
vt 0.9352 0.2679 0.0000
vt 0.9352 0.2320 0.0000
vt 0.9092 0.2699 0.0000
vt 0.9112 0.2679 0.0000
vt 0.9092 0.2300 0.0000
vt 0.9112 0.2320 0.0000
vt 0.8283 0.1398 0.0000
vt 0.8842 0.1398 0.0000
vt 0.8822 0.1418 0.0000
vt 0.8303 0.1418 0.0000
vt 0.8842 0.1678 0.0000
vt 0.8822 0.1658 0.0000
vt 0.8283 0.1678 0.0000
vt 0.8303 0.1658 0.0000
vt 0.9599 0.1726 0.0000
vt 0.9599 0.2126 0.0000
vt 0.9579 0.2106 0.0000
vt 0.9579 0.1746 0.0000
vt 0.9319 0.2126 0.0000
vt 0.9339 0.2106 0.0000
vt 0.9319 0.1726 0.0000
vt 0.9339 0.1746 0.0000
vt 0.8881 0.1398 0.0000
vt 0.9441 0.1398 0.0000
vt 0.9421 0.1418 0.0000
vt 0.8901 0.1418 0.0000
vt 0.9441 0.1678 0.0000
vt 0.9421 0.1658 0.0000
vt 0.8881 0.1678 0.0000
vt 0.8901 0.1658 0.0000
vt 0.9441 0.2300 0.0000
vt 0.9441 0.2659 0.0000
vt 0.9421 0.2659 0.0000
vt 0.9421 0.2300 0.0000
vt 0.9648 0.2034 0.0000
vt 0.9648 0.1794 0.0000
vt 0.9668 0.1794 0.0000
vt 0.9668 0.2034 0.0000
vt 0.9421 0.3072 0.0000
vt 0.9421 0.2713 0.0000
vt 0.9441 0.2713 0.0000
vt 0.9441 0.3072 0.0000
vt 0.9142 0.2986 0.0000
vt 0.9142 0.2746 0.0000
vt 0.9162 0.2746 0.0000
vt 0.9162 0.2986 0.0000
vt 0.7957 0.2611 0.0000
vt 0.7957 0.3131 0.0000
vt 0.7937 0.3131 0.0000
vt 0.7937 0.2611 0.0000
vt 0.9555 0.1638 0.0000
vt 0.9555 0.1398 0.0000
vt 0.9575 0.1398 0.0000
vt 0.9575 0.1638 0.0000
vt 0.8075 0.2611 0.0000
vt 0.8075 0.3131 0.0000
vt 0.8055 0.3131 0.0000
vt 0.8055 0.2611 0.0000
vt 0.9719 0.2999 0.0000
vt 0.9719 0.3239 0.0000
vt 0.9699 0.3239 0.0000
vt 0.9699 0.2999 0.0000
vt 0.9055 0.2952 0.0000
vt 0.8696 0.2952 0.0000
vt 0.8696 0.2932 0.0000
vt 0.9055 0.2932 0.0000
vt 0.9488 0.1638 0.0000
vt 0.9488 0.1398 0.0000
vt 0.9508 0.1398 0.0000
vt 0.9508 0.1638 0.0000
vt 0.8291 0.3033 0.0000
vt 0.8651 0.3033 0.0000
vt 0.8651 0.3053 0.0000
vt 0.8291 0.3053 0.0000
vt 0.9601 0.2999 0.0000
vt 0.9601 0.3239 0.0000
vt 0.9581 0.3239 0.0000
vt 0.9581 0.2999 0.0000
vt 0.8190 0.3131 0.0000
vt 0.8190 0.2611 0.0000
vt 0.8210 0.2611 0.0000
vt 0.8210 0.3131 0.0000
vt 0.9640 0.3239 0.0000
vt 0.9640 0.2999 0.0000
vt 0.9660 0.2999 0.0000
vt 0.9660 0.3239 0.0000
vt 0.7996 0.3131 0.0000
vt 0.7996 0.2611 0.0000
vt 0.8016 0.2611 0.0000
vt 0.8016 0.3131 0.0000
vt 0.8704 0.3075 0.0000
vt 0.8944 0.3075 0.0000
vt 0.8944 0.3095 0.0000
vt 0.8704 0.3095 0.0000
vt 0.7844 0.1398 0.0000
vt 0.8244 0.1398 0.0000
vt 0.8224 0.1418 0.0000
vt 0.7864 0.1418 0.0000
vt 0.8244 0.1957 0.0000
vt 0.8224 0.1937 0.0000
vt 0.7844 0.1957 0.0000
vt 0.7864 0.1937 0.0000
vt 0.8257 0.3092 0.0000
vt 0.8617 0.3092 0.0000
vt 0.8617 0.3132 0.0000
vt 0.8257 0.3132 0.0000
vt 0.9284 0.1726 0.0000
vt 0.9284 0.2246 0.0000
vt 0.9244 0.2246 0.0000
vt 0.9244 0.1726 0.0000
vt 0.8696 0.2999 0.0000
vt 0.9055 0.2999 0.0000
vt 0.9055 0.3039 0.0000
vt 0.8696 0.3039 0.0000
vt 0.8154 0.2611 0.0000
vt 0.8154 0.3131 0.0000
vt 0.8114 0.3131 0.0000
vt 0.8114 0.2611 0.0000
vt 0.8847 0.1726 0.0000
vt 0.9207 0.1726 0.0000
vt 0.9173 0.1775 0.0000
vt 0.8881 0.1775 0.0000
vt 0.9207 0.2246 0.0000
vt 0.9173 0.2197 0.0000
vt 0.8847 0.2246 0.0000
vt 0.8881 0.2197 0.0000
vt 0.9378 0.2746 0.0000
vt 0.9378 0.3038 0.0000
vt 0.9311 0.3038 0.0000
vt 0.9311 0.2746 0.0000
vt 0.8342 0.3185 0.0000
vt 0.8763 0.3185 0.0000
vt 0.8763 0.3251 0.0000
vt 0.8342 0.3251 0.0000
vt 0.9268 0.2746 0.0000
vt 0.9268 0.3038 0.0000
vt 0.9201 0.3038 0.0000
vt 0.9201 0.2746 0.0000
vt 0.7870 0.3185 0.0000
vt 0.8291 0.3185 0.0000
vt 0.8291 0.3251 0.0000
vt 0.7870 0.3251 0.0000
vt 0.9020 0.2836 0.0000
vt 0.9046 0.2877 0.0000
vt 0.8702 0.2877 0.0000
vt 0.8728 0.2836 0.0000
vt 0.9020 0.2414 0.0000
vt 0.9046 0.2373 0.0000
vt 0.8728 0.2414 0.0000
vt 0.8702 0.2373 0.0000
vt 0.9711 0.1758 0.0000
vt 0.9671 0.1758 0.0000
vt 0.9671 0.1398 0.0000
vt 0.9711 0.1398 0.0000
vt 0.7891 0.3131 0.0000
vt 0.7850 0.3131 0.0000
vt 0.7850 0.2611 0.0000
vt 0.7891 0.2611 0.0000
vt 0.8651 0.2938 0.0000
vt 0.8651 0.2978 0.0000
vt 0.8291 0.2978 0.0000
vt 0.8291 0.2938 0.0000
vt 0.8811 0.1724 0.0000
vt 0.8811 0.1764 0.0000
vt 0.8291 0.1764 0.0000
vt 0.8291 0.1724 0.0000
vt 0.8291 0.2367 0.0000
vt 0.8647 0.2367 0.0000
vt 0.8647 0.2883 0.0000
vt 0.8291 0.2883 0.0000
vt 0.9051 0.2883 0.0000
vt 0.8696 0.2883 0.0000
vt 0.9051 0.2367 0.0000
vt 0.8696 0.2367 0.0000
vt 0.9717 0.1400 0.0000
vt 0.9717 0.1756 0.0000
vt 0.9665 0.1756 0.0000
vt 0.9665 0.1400 0.0000
vt 0.7897 0.2613 0.0000
vt 0.7897 0.3129 0.0000
vt 0.7844 0.3129 0.0000
vt 0.7844 0.2613 0.0000
vt 0.8293 0.2932 0.0000
vt 0.8649 0.2932 0.0000
vt 0.8649 0.2984 0.0000
vt 0.8293 0.2984 0.0000
vt 0.8293 0.1718 0.0000
vt 0.8809 0.1718 0.0000
vt 0.8809 0.1770 0.0000
vt 0.8293 0.1770 0.0000
vt 0.9719 0.2533 0.0000
vt 0.9480 0.2533 0.0000
vt 0.9480 0.2173 0.0000
vt 0.9719 0.2173 0.0000
vt 0.8291 0.2329 0.0000
vt 0.8291 0.2089 0.0000
vt 0.8811 0.2089 0.0000
vt 0.8811 0.2329 0.0000
vt 0.9719 0.2946 0.0000
vt 0.9480 0.2946 0.0000
vt 0.9480 0.2586 0.0000
vt 0.9719 0.2586 0.0000
vt 0.8811 0.1811 0.0000
vt 0.8811 0.2051 0.0000
vt 0.8291 0.2051 0.0000
vt 0.8291 0.1811 0.0000
# 216 texture coords

o TombeV_6
g TombeV_6
s off
f 1/1/1 2/2/1 3/3/1 4/4/1 
f 5/5/2 6/6/3 7/7/4 8/8/5 
f 1/9/6 4/10/6 9/11/6 10/12/6 
f 4/10/6 11/13/6 12/14/6 9/11/6 
f 11/13/6 13/15/6 14/16/6 12/14/6 
f 13/15/6 1/9/6 10/12/6 14/16/6 
f 4/17/7 3/18/7 15/19/7 16/20/7 
f 3/18/7 17/21/7 18/22/7 15/19/7 
f 17/21/7 11/23/7 19/24/7 18/22/7 
f 11/23/7 4/17/7 16/20/7 19/24/7 
f 3/25/8 2/26/8 20/27/8 21/28/8 
f 2/26/8 22/29/8 23/30/8 20/27/8 
f 22/29/8 17/31/8 24/32/8 23/30/8 
f 17/31/8 3/25/8 21/28/8 24/32/8 
f 2/33/9 1/34/9 25/35/9 26/36/9 
f 1/34/9 13/37/9 27/38/9 25/35/9 
f 13/37/9 22/39/9 28/40/9 27/38/9 
f 22/39/9 2/33/9 26/36/9 28/40/9 
f 10/41/10 9/42/10 29/43/10 30/44/10 
f 9/45/9 12/46/9 31/47/9 29/48/9 
f 12/49/1 14/50/1 32/51/1 31/52/1 
f 14/53/7 10/54/7 30/55/7 32/56/7 
f 16/57/10 15/58/10 33/59/10 29/60/10 
f 15/61/6 18/62/6 34/63/6 33/64/6 
f 18/65/1 19/66/1 31/67/1 34/68/1 
f 19/69/8 16/70/8 29/71/8 31/72/8 
f 21/73/10 20/74/10 35/75/10 33/76/10 
f 20/77/7 23/78/7 36/79/7 35/80/7 
f 23/81/1 24/82/1 34/83/1 36/84/1 
f 24/85/9 21/86/9 33/87/9 34/88/9 
f 26/89/10 25/90/10 30/91/10 35/92/10 
f 25/93/8 27/94/8 32/95/8 30/96/8 
f 27/97/1 28/98/1 36/99/1 32/100/1 
f 28/101/6 26/102/6 35/103/6 36/104/6 
f 13/105/10 11/106/10 37/107/10 38/108/10 
f 11/106/10 17/109/10 39/110/10 37/107/10 
f 17/109/10 22/111/10 40/112/10 39/110/10 
f 22/111/10 13/105/10 38/108/10 40/112/10 
f 38/113/6 37/114/6 41/115/6 42/116/6 
f 37/117/7 39/118/7 43/119/7 41/120/7 
f 39/121/8 40/122/8 44/123/8 43/124/8 
f 40/125/9 38/126/9 42/127/9 44/128/9 
f 42/129/10 41/130/10 45/131/10 46/132/10 
f 41/130/10 43/133/10 47/134/10 45/131/10 
f 43/133/10 44/135/10 48/136/10 47/134/10 
f 44/135/10 42/129/10 46/132/10 48/136/10 
f 46/137/6 45/138/6 49/139/6 50/140/6 
f 45/141/7 47/142/7 51/143/7 49/144/7 
f 47/145/8 48/146/8 52/147/8 51/148/8 
f 48/149/9 46/150/9 50/151/9 52/152/9 
f 49/153/1 53/154/11 54/155/12 50/156/1 
f 51/157/1 55/158/13 53/154/11 49/153/1 
f 52/159/1 56/160/14 55/158/13 51/157/1 
f 50/156/1 54/155/12 56/160/14 52/159/1 
f 57/161/15 58/162/16 59/163/16 60/164/15 
f 61/165/17 62/166/18 58/167/18 57/168/17 
f 63/169/19 64/170/20 62/171/20 61/172/19 
f 60/173/21 59/174/22 64/175/22 63/176/21 
f 5/5/2 8/8/5 65/177/23 66/178/24 
f 6/6/3 5/5/2 66/178/24 67/179/25 
f 7/7/4 6/6/3 67/179/25 68/180/26 
f 8/8/5 7/7/4 68/180/26 65/177/23 
f 54/155/12 53/154/11 69/181/27 70/182/28 
f 53/154/11 55/158/13 71/183/29 69/181/27 
f 55/158/13 56/160/14 72/184/30 71/183/29 
f 56/160/14 54/155/12 70/182/28 72/184/30 
f 57/161/15 60/164/15 70/185/31 69/186/31 
f 59/163/16 58/162/16 66/187/32 65/188/32 
f 61/165/17 57/168/17 69/189/33 71/190/33 
f 58/167/18 62/166/18 67/191/34 66/192/34 
f 63/169/19 61/172/19 71/193/35 72/194/35 
f 62/171/20 64/170/20 68/195/36 67/196/36 
f 60/173/21 63/176/21 72/197/37 70/198/37 
f 64/175/22 59/174/22 65/199/38 68/200/38 
f 29/201/6 31/202/6 32/203/6 30/204/6 
f 33/205/7 34/206/7 31/207/7 29/208/7 
f 35/209/8 36/210/8 34/211/8 33/212/8 
f 30/213/9 32/214/9 36/215/9 35/216/9 
# 78 polygons

