# 3ds Max Wavefront OBJ Exporter v0.99 - (c)2007 guruware
# File Created: 26.03.2022 15:33:46

#
# object TombeH_3
#

v  1.8131 0.0000 -0.7011
v  1.8131 0.0000 0.7011
v  -1.8131 0.0000 0.7011
v  -1.8131 0.0000 -0.7011
v  1.5507 0.6456 -0.4982
v  -1.5507 0.6456 -0.4982
v  -1.5507 0.6456 0.4982
v  1.5507 0.6456 0.4982
v  1.8131 0.4353 0.7011
v  -1.8131 0.4353 0.7011
v  1.8131 0.4353 -0.7011
v  -1.8131 0.4353 -0.7011
v  1.6581 0.4353 0.5812
v  -1.6581 0.4353 0.5812
v  1.6581 0.4353 -0.5812
v  -1.6581 0.4353 -0.5812
v  1.6581 0.5998 0.5812
v  -1.6581 0.5998 0.5812
v  1.6581 0.5998 -0.5812
v  -1.6581 0.5998 -0.5812
# 20 vertices

vn 0.0000 -1.0000 -0.0000
vn 0.0000 1.0000 -0.0000
vn 0.0000 0.0000 1.0000
vn 1.0000 0.0000 -0.0000
vn 0.0000 0.0000 -1.0000
vn -1.0000 0.0000 -0.0000
vn 0.0000 0.8902 0.4555
vn 0.4400 0.8980 -0.0000
vn 0.0000 0.8902 -0.4555
vn -0.4400 0.8980 -0.0000
# 10 vertex normals

vt 0.7890 0.6945 0.0000
vt 0.7890 0.7505 0.0000
vt 0.6441 0.7505 0.0000
vt 0.6441 0.6945 0.0000
vt 0.7681 0.8024 0.0000
vt 0.6441 0.8024 0.0000
vt 0.6441 0.7626 0.0000
vt 0.7681 0.7626 0.0000
vt 0.6441 0.6724 0.0000
vt 0.7890 0.6724 0.0000
vt 0.7890 0.6898 0.0000
vt 0.6441 0.6898 0.0000
vt 0.8297 0.8021 0.0000
vt 0.7737 0.8021 0.0000
vt 0.7737 0.7847 0.0000
vt 0.8297 0.7847 0.0000
vt 0.7890 0.6072 0.0000
vt 0.6441 0.6072 0.0000
vt 0.6441 0.5898 0.0000
vt 0.7890 0.5898 0.0000
vt 0.8297 0.7800 0.0000
vt 0.7737 0.7800 0.0000
vt 0.7737 0.7626 0.0000
vt 0.8297 0.7626 0.0000
vt 0.7828 0.6167 0.0000
vt 0.6503 0.6167 0.0000
vt 0.6441 0.6119 0.0000
vt 0.7890 0.6119 0.0000
vt 0.7828 0.6632 0.0000
vt 0.7890 0.6680 0.0000
vt 0.6503 0.6632 0.0000
vt 0.6441 0.6680 0.0000
vt 0.8035 0.7252 0.0000
vt 0.8035 0.5927 0.0000
vt 0.8100 0.5927 0.0000
vt 0.8100 0.7252 0.0000
vt 0.8413 0.7577 0.0000
vt 0.7948 0.7577 0.0000
vt 0.7948 0.7511 0.0000
vt 0.8413 0.7511 0.0000
vt 0.7929 0.7252 0.0000
vt 0.7929 0.5927 0.0000
vt 0.7995 0.5927 0.0000
vt 0.7995 0.7252 0.0000
vt 0.8413 0.7461 0.0000
vt 0.7948 0.7461 0.0000
vt 0.7948 0.7396 0.0000
vt 0.8413 0.7396 0.0000
vt 0.8178 0.5970 0.0000
vt 0.8178 0.7210 0.0000
vt 0.8140 0.7252 0.0000
vt 0.8140 0.5927 0.0000
vt 0.8217 0.6361 0.0000
vt 0.8217 0.5961 0.0000
vt 0.8260 0.5927 0.0000
vt 0.8260 0.6395 0.0000
vt 0.7724 0.7587 0.0000
vt 0.6484 0.7587 0.0000
vt 0.6441 0.7549 0.0000
vt 0.7767 0.7549 0.0000
vt 0.8260 0.6460 0.0000
vt 0.8260 0.6860 0.0000
vt 0.8217 0.6894 0.0000
vt 0.8217 0.6426 0.0000
# 64 texture coords

o TombeH_3
g TombeH_3
s off
f 1/1/1 2/2/1 3/3/1 4/4/1 
f 5/5/2 6/6/2 7/7/2 8/8/2 
f 9/9/3 10/10/3 3/11/3 2/12/3 
f 11/13/4 9/14/4 2/15/4 1/16/4 
f 12/17/5 11/18/5 1/19/5 4/20/5 
f 10/21/6 12/22/6 4/23/6 3/24/6 
f 13/25/2 14/26/2 10/27/2 9/28/2 
f 15/29/2 13/25/2 9/28/2 11/30/2 
f 16/31/2 15/29/2 11/30/2 12/32/2 
f 14/26/2 16/31/2 12/32/2 10/27/2 
f 17/33/3 18/34/3 14/35/3 13/36/3 
f 19/37/4 17/38/4 13/39/4 15/40/4 
f 20/41/5 19/42/5 15/43/5 16/44/5 
f 18/45/6 20/46/6 16/47/6 14/48/6 
f 8/49/7 7/50/7 18/51/7 17/52/7 
f 5/53/8 8/54/8 17/55/8 19/56/8 
f 6/57/9 5/58/9 19/59/9 20/60/9 
f 7/61/10 6/62/10 20/63/10 18/64/10 
# 18 polygons

