# 3ds Max Wavefront OBJ Exporter v0.99 - (c)2007 guruware
# File Created: 26.03.2022 15:33:46

#
# object TombeV_4
#

v  0.1159 0.0000 0.2320
v  -0.1159 0.0000 0.2320
v  -0.1159 0.0000 -0.0000
v  0.1159 0.0000 -0.0000
v  -0.1159 1.4598 0.1604
v  0.1159 1.4598 0.1604
v  0.1159 1.4885 0.0716
v  -0.1159 1.4885 0.0716
v  -0.1159 1.1349 0.4639
v  -0.1159 0.0000 0.4639
v  0.1159 0.0000 0.4639
v  0.1159 1.1349 0.4639
v  0.1159 1.3429 0.2320
v  0.1159 1.4180 -0.0000
v  0.1159 1.1349 -0.4639
v  0.1159 0.0000 -0.4639
v  -0.1159 0.0000 -0.4639
v  -0.1159 1.1349 -0.4639
v  -0.1159 1.3429 -0.2320
v  -0.1159 0.0000 -0.2320
v  -0.1159 1.4180 -0.0000
v  -0.1159 1.4885 -0.0716
v  -0.1159 1.4598 -0.1604
v  0.1159 0.0000 -0.2320
v  -0.1159 1.3825 -0.2923
v  0.1159 1.3825 -0.2923
v  0.1159 1.2827 -0.4036
v  -0.1159 1.2827 -0.4036
v  0.1159 1.4885 -0.0716
v  0.1159 1.4598 -0.1604
v  0.1159 1.3825 0.2923
v  -0.1159 1.3825 0.2923
v  -0.1159 1.2827 0.4036
v  0.1159 1.2827 0.4036
v  0.1159 1.3429 -0.2320
v  -0.1159 1.3429 0.2320
# 36 vertices

vn 0.0000 -1.0000 -0.0000
vn 0.0000 0.9233 0.3841
vn 0.0000 0.9894 0.1451
vn 0.0000 0.2059 0.9786
vn 0.0000 0.0000 1.0000
vn 1.0000 0.0000 -0.0000
vn 0.0000 0.2059 -0.9786
vn 0.0000 0.0000 -1.0000
vn -1.0000 0.0000 -0.0000
vn 0.0000 0.8280 -0.5607
vn 0.0000 0.6022 -0.7984
vn 0.0000 0.9894 -0.1451
vn 0.0000 0.9233 -0.3841
vn 0.0000 0.8280 0.5607
vn 0.0000 0.6022 0.7984
# 15 vertex normals

vt 0.9240 0.7526 0.0000
vt 0.9240 0.7619 0.0000
vt 0.9147 0.7619 0.0000
vt 0.9147 0.7526 0.0000
vt 0.9223 0.7503 0.0000
vt 0.9223 0.7409 0.0000
vt 0.9258 0.7409 0.0000
vt 0.9258 0.7503 0.0000
vt 0.9043 0.7503 0.0000
vt 0.8586 0.7503 0.0000
vt 0.8586 0.7409 0.0000
vt 0.9043 0.7409 0.0000
vt 0.8667 0.8063 0.0000
vt 0.8667 0.7526 0.0000
vt 0.8760 0.7526 0.0000
vt 0.8760 0.8093 0.0000
vt 0.8731 0.8121 0.0000
vt 0.8696 0.8110 0.0000
vt 0.9531 0.7409 0.0000
vt 0.9988 0.7409 0.0000
vt 0.9988 0.7503 0.0000
vt 0.9531 0.7503 0.0000
vt 0.9705 0.8063 0.0000
vt 0.9705 0.7526 0.0000
vt 0.9797 0.7526 0.0000
vt 0.9797 0.8093 0.0000
vt 0.9769 0.8121 0.0000
vt 0.9733 0.8110 0.0000
vt 0.9055 0.7526 0.0000
vt 0.9055 0.7619 0.0000
vt 0.8962 0.7619 0.0000
vt 0.8962 0.7526 0.0000
vt 0.9333 0.7526 0.0000
vt 0.9333 0.7619 0.0000
vt 0.9412 0.7503 0.0000
vt 0.9412 0.7409 0.0000
vt 0.9472 0.7409 0.0000
vt 0.9472 0.7503 0.0000
vt 0.9316 0.7503 0.0000
vt 0.9316 0.7409 0.0000
vt 0.9352 0.7409 0.0000
vt 0.9352 0.7503 0.0000
vt 0.9162 0.7409 0.0000
vt 0.9162 0.7503 0.0000
vt 0.9102 0.7503 0.0000
vt 0.9102 0.7409 0.0000
vt 0.8852 0.8063 0.0000
vt 0.8852 0.7526 0.0000
vt 0.8921 0.8039 0.0000
vt 0.8876 0.8079 0.0000
vt 0.8824 0.8110 0.0000
vt 0.8788 0.8121 0.0000
vt 0.8598 0.8039 0.0000
vt 0.8643 0.8079 0.0000
vt 0.9890 0.8063 0.0000
vt 0.9890 0.7526 0.0000
vt 0.9959 0.8039 0.0000
vt 0.9914 0.8079 0.0000
vt 0.9861 0.8110 0.0000
vt 0.9826 0.8121 0.0000
vt 0.9636 0.8039 0.0000
vt 0.9681 0.8079 0.0000
vt 0.9983 0.7980 0.0000
vt 0.9983 0.7526 0.0000
vt 0.9612 0.7980 0.0000
vt 0.9612 0.7526 0.0000
vt 0.8945 0.7980 0.0000
vt 0.8945 0.7526 0.0000
vt 0.8574 0.7980 0.0000
vt 0.8574 0.7526 0.0000
# 70 texture coords

o TombeV_4
g TombeV_4
s off
f 1/1/1 2/2/1 3/3/1 4/4/1 
f 5/5/2 6/6/2 7/7/3 8/8/3 
f 9/9/4 10/10/5 11/11/5 12/12/4 
f 13/13/6 1/14/6 4/15/6 14/16/6 7/17/6 6/18/6 
f 15/19/7 16/20/8 17/21/8 18/22/7 
f 19/23/9 20/24/9 3/25/9 21/26/9 22/27/9 23/28/9 
f 24/29/1 20/30/1 17/31/1 16/32/1 
f 4/4/1 3/3/1 20/30/1 24/29/1 
f 2/2/1 1/1/1 11/33/1 10/34/1 
f 25/35/10 26/36/10 27/37/11 28/38/11 
f 22/39/12 29/40/12 30/41/13 23/42/13 
f 31/43/14 32/44/14 33/45/15 34/46/15 
f 35/47/6 24/48/6 27/49/6 26/50/6 
f 14/16/6 4/15/6 24/48/6 35/47/6 30/51/6 29/52/6 
f 34/53/6 1/14/6 13/13/6 31/54/6 
f 36/55/9 2/56/9 33/57/9 32/58/9 
f 21/26/9 3/25/9 2/56/9 36/55/9 5/59/9 8/60/9 
f 28/61/9 20/24/9 19/23/9 25/62/9 
f 7/17/6 14/16/6 29/52/6 
f 22/27/9 21/26/9 8/60/9 
f 30/51/6 35/47/6 26/50/6 
f 31/54/6 13/13/6 6/18/6 
f 5/59/9 36/55/9 32/58/9 
f 25/62/9 19/23/9 23/28/9 
f 29/40/12 22/39/12 8/8/3 7/7/3 
f 32/44/14 31/43/14 6/6/2 5/5/2 
f 15/19/7 18/22/7 28/38/11 27/37/11 
f 26/36/10 25/35/10 23/42/13 30/41/13 
f 9/9/4 12/12/4 34/46/15 33/45/15 
f 9/63/9 33/57/9 2/56/9 10/64/9 
f 20/24/9 28/61/9 18/65/9 17/66/9 
f 15/67/6 27/49/6 24/48/6 16/68/6 
f 1/14/6 34/53/6 12/69/6 11/70/6 
# 27 polygons - 6 triangles

